      <svg width="51" height="64" viewBox="0 0 51 64" fill="none" xmlns="http://www.w3.org/2000/svg">
        <path d="M13.2877 0.149998C12.7627 0.450001 12.7377 0.612499 12.7252 2.9125V5.125L6.33769 32.25C2.38769 49.075 -0.0248076 59.55 0.000192429 59.8375C0.0251924 60.15 0.137692 60.3625 0.350192 60.525C0.675193 60.7625 11.2627 64 11.7127 64C11.8502 64 12.1002 63.875 12.2752 63.7125C12.5002 63.525 14.7502 58.3875 20.0502 46C24.1627 36.4125 27.5502 28.525 27.5877 28.475C27.6627 28.3875 32.3502 39.175 32.3502 39.4125C32.3502 39.4625 31.2002 39.5 29.7877 39.5C27.2252 39.5 27.2127 39.5 26.9127 39.8125L26.6002 40.1125V45.3V50.4875L26.8877 50.8125C27.1377 51.1 27.6002 51.2125 32.7627 52.25C36.6627 53.025 38.4377 53.3375 38.6377 53.2625C38.7877 53.2 41.3627 50.95 44.3502 48.2625C48.7752 44.2875 49.8127 43.2875 49.9502 42.9125C50.0752 42.5625 50.1002 41.8375 50.0752 40.25L50.0252 38.0625L46.3502 21.9375L42.6752 5.8125L42.6127 3.2125L42.5377 0.599998L42.1877 0.299999L41.8377 0H27.6877C17.2752 0.0125008 13.4752 0.0499992 13.2877 0.149998ZM19.1002 3.1875V4.25H16.9752H14.8502V3.1875V2.125H16.9752H19.1002V3.1875ZM24.4752 3.1875V4.25H22.8502H21.2252V3.1875V2.125H22.8502H24.4752V3.1875ZM28.7252 3.1875V4.25H27.6627H26.6002V3.1875V2.125H27.6627H28.7252V3.1875ZM34.0752 3.2125L34.1127 4.25H32.4752H30.8502V3.1875V2.1125L32.4502 2.15L34.0377 2.1875L34.0752 3.2125ZM40.4752 3.1875V4.25H38.3502H36.2252V3.1875V2.125H38.3502H40.4752V3.1875ZM19.1002 7.775C19.1002 9.4375 18.8502 10.1375 18.0002 10.9C17.2877 11.5375 16.4877 11.75 14.7627 11.75C13.4627 11.75 13.3377 11.725 13.4002 11.525C13.4752 11.3 14.6002 6.5 14.6002 6.425C14.6002 6.4 15.6127 6.375 16.8502 6.375H19.1002V7.775ZM26.6002 15.8375V25.3125L18.8377 43.4375C14.5627 53.4 11.0627 61.575 11.0502 61.5875C11.0127 61.6375 2.57519 59.125 2.40019 59.0125C2.30019 58.9625 3.93769 51.8 7.55019 36.4375C10.4627 24.0625 12.8502 13.925 12.8502 13.9C12.8502 13.8875 13.6002 13.875 14.5252 13.875C17.2002 13.875 18.2877 13.55 19.5502 12.35C20.7752 11.1875 21.2252 9.95 21.2252 7.6875V6.375H23.9127H26.6002V15.8375ZM30.8502 14.6625V22.95L30.2002 23.4375C29.8377 23.7 29.3502 24.05 29.1377 24.225L28.7252 24.525V15.45V6.375H29.7877H30.8502V14.6625ZM34.1127 8.125C34.2002 10.0625 34.3002 10.4625 34.9752 11.4625C35.5377 12.3125 36.2127 12.9 37.1377 13.325C38.0752 13.75 38.9002 13.875 40.7377 13.875C42.3002 13.875 42.3502 13.8875 42.4127 14.15C43.8502 20.25 47.8502 38.425 47.8502 38.875V39.5H41.3002H34.7502L32.0502 33.2C30.5627 29.7375 29.3502 26.85 29.3502 26.7875C29.3627 26.7375 30.0877 26.15 30.9627 25.5C31.8502 24.85 32.6627 24.1625 32.7752 23.975C32.9502 23.6875 32.9752 22.6875 32.9752 15V6.3625L33.5127 6.4L34.0377 6.4375L34.1127 8.125ZM41.2502 9C41.5752 10.4125 41.8377 11.6125 41.8377 11.675C41.8502 11.725 41.1002 11.7625 40.2002 11.725C38.6502 11.6875 38.4877 11.65 37.8752 11.325C36.6002 10.625 36.2252 9.825 36.2252 7.8125V6.375L38.4377 6.4L40.6627 6.4375L41.2502 9ZM47.8502 41.9375C47.8502 42.1875 46.8877 43.1125 42.9252 46.6875L38.0002 51.125L33.6377 50.25C31.2502 49.775 29.1627 49.35 29.0127 49.3125L28.7252 49.25V45.4375V41.625H38.2877H47.8502V41.9375Z" fill="#8F8F8F" />
      </svg>

