<svg width="60" height="60" viewBox="0 0 60 60" fill="none" xmlns="http://www.w3.org/2000/svg">
<mask id="path-1-outside-1_309_924" maskUnits="userSpaceOnUse" x="-0.875" y="-0.5" width="61" height="61" fill="black">
<rect fill="white" x="-0.875" y="-0.5" width="61" height="61"/>
<path d="M26.4475 0.259712C19.7875 1.1202 14.0458 3.94587 9.45468 8.6437C8.0018 10.1205 7.22306 11.0856 6.084 12.8182C4.45678 15.2602 3.16663 18.1905 2.446 21.0743C1.79511 23.6674 1.64401 25.0279 1.65563 28.1676C1.65563 30.6095 1.92296 35.2841 2.10893 36.3073C2.16705 36.6213 2.13218 36.6794 1.78349 36.8539C1.16747 37.1446 0.71417 37.5748 0.435218 38.1562C-0.111064 39.2377 -0.111064 39.1912 1.89972 48.1333C3.96861 57.3545 3.89888 57.1568 5.04955 57.8429C5.9329 58.3778 6.47919 58.4243 7.95531 58.122C8.88515 57.9243 9.18735 57.8894 9.23384 58.0057C9.33845 58.3197 10.1056 59.0406 10.5705 59.2615C11.3027 59.622 12.3372 59.5755 14.4293 59.1104C16.4401 58.6569 16.7074 58.5406 17.3118 57.8778C17.893 57.2382 18.0906 56.7266 18.0906 55.9242C18.0906 55.0637 13.546 34.7259 13.2089 34.0631C12.8718 33.4119 12.1047 32.784 11.3376 32.563C10.7681 32.4002 10.6054 32.4002 9.80337 32.5514L8.92002 32.7142L8.81541 31.6095C8.64107 29.5513 8.7108 25.2605 8.93164 24.0744C10.0707 17.9928 13.6157 12.9229 18.9274 9.73675C22.5422 7.57389 27.1217 6.50409 31.3524 6.82969C39.0701 7.4111 45.7301 11.8647 48.9962 18.6324C50.7048 22.1674 51.2162 25.0977 50.9721 29.9118C50.9023 31.377 50.821 32.6096 50.7977 32.6561C50.7629 32.691 50.3444 32.6444 49.8446 32.5514C49.031 32.4002 48.8799 32.4002 48.2988 32.563C47.5317 32.784 46.7645 33.4119 46.4275 34.0631C46.0904 34.7259 41.5458 55.0637 41.5458 55.9242C41.5458 56.6917 41.7434 57.215 42.2432 57.7964C42.8476 58.4708 43.2893 58.6685 45.1954 59.0987C47.3341 59.5755 48.3337 59.622 49.0659 59.2615C49.5308 59.0406 50.2979 58.3197 50.4025 58.0057C50.449 57.8894 50.7512 57.9243 51.6811 58.122C53.1572 58.4243 53.7035 58.3778 54.5868 57.8429C55.7259 57.1568 55.6794 57.3312 57.6902 48.424C59.6893 39.5516 59.7475 39.1912 59.2128 38.1679C58.9455 37.6562 58.4224 37.1446 57.7715 36.7725C57.5972 36.6678 57.5856 36.5399 57.7018 35.3771C58.1551 30.656 58.1667 25.6326 57.7134 23.1093C55.8654 12.6554 48.1477 4.16681 37.78 1.16672C35.2578 0.445763 33.3748 0.178314 30.3412 0.131802C28.5513 0.108543 27.2728 0.143433 26.4475 0.259712ZM33.2702 1.77139C43.5101 3.10864 51.9833 9.93443 55.2377 19.4464C56.6209 23.5395 56.8766 27.0512 56.307 34.2724C56.1443 36.3539 56.1443 36.3539 55.6562 36.2259C55.3307 36.1445 55.2726 36.0748 55.2726 35.7841C55.2726 34.8422 54.2381 33.6096 53.1688 33.2956C52.8318 33.191 52.4831 33.1096 52.4017 33.1096C52.2739 33.1096 52.2506 32.9584 52.2971 32.4351C52.4598 30.656 52.4947 29.9699 52.4831 27.8187C52.4831 26.3303 52.425 25.0744 52.3087 24.3419C51.7624 20.772 50.3444 17.33 48.2174 14.4462C47.183 13.0508 44.6608 10.5624 43.3009 9.59721C40.1859 7.38784 36.7571 6.01571 33.0378 5.49244C31.457 5.2715 28.3072 5.2715 26.6684 5.50406C17.2072 6.81806 9.47792 13.9694 7.62986 23.0744C7.13007 25.5163 7.07196 27.2489 7.35091 31.8537C7.40903 32.9119 7.3974 33.1096 7.2463 33.1096C7.15332 33.1096 6.81625 33.191 6.49081 33.284C5.43311 33.598 4.3638 34.8422 4.3638 35.7724C4.3638 36.1097 4.20107 36.2492 3.79427 36.2492C3.61992 36.2492 3.57343 36.1097 3.51532 35.5282C3.28286 33.2026 3.16663 30.7374 3.155 28.1676C3.14338 24.9582 3.27123 23.8767 3.92212 21.3069C6.084 12.8648 12.6859 5.81802 21.1126 2.99236C22.9606 2.37606 25.3317 1.85278 27.1449 1.67836C28.3653 1.55045 32.0266 1.60859 33.2702 1.77139ZM11.3027 34.1561C11.5119 34.2724 11.756 34.4933 11.849 34.6445C11.942 34.7957 13.0694 39.6563 14.3712 45.4472L16.7191 55.9824L16.4982 56.4242C16.382 56.6684 16.1495 56.9708 15.9868 57.0871C15.58 57.3778 12.0931 58.1452 11.5933 58.0522C11.3841 58.0173 11.047 57.8429 10.8494 57.6568C10.4426 57.2964 10.6867 58.308 7.4439 43.7378L5.72369 36.0399L5.94453 35.598C6.07238 35.3538 6.29322 35.0631 6.45594 34.9468C6.74651 34.7375 9.94284 33.9468 10.5821 33.9352C10.7797 33.9235 11.0935 34.0282 11.3027 34.1561ZM51.0651 34.3305C52.0646 34.5515 53.0177 34.8306 53.1805 34.9468C53.3432 35.0631 53.564 35.3538 53.6919 35.598L53.9127 36.0399L52.2041 43.6797C48.8567 58.6918 49.1938 57.2964 48.787 57.6568C48.5894 57.8313 48.2523 58.0173 48.0431 58.0522C47.5433 58.1452 44.0564 57.3778 43.6496 57.0871C43.4869 56.9708 43.2544 56.6684 43.1382 56.4242L42.9173 55.9824L45.2652 45.4472C46.567 39.6563 47.6944 34.7957 47.7874 34.6445C48.0082 34.3073 48.6242 33.9235 48.9729 33.9235C49.124 33.9235 50.0655 34.1096 51.0651 34.3305ZM4.63113 37.9586C4.66599 38.1446 5.59584 42.2843 6.6884 47.1798C7.78096 52.0753 8.68756 56.1568 8.69918 56.2498C8.72243 56.4242 7.43227 56.808 6.71165 56.8196C6.20023 56.8312 5.59584 56.5405 5.35175 56.1684C5.14254 55.8545 1.57427 40.0982 1.57427 39.4935C1.57427 39.04 1.93459 38.4353 2.31815 38.2376C2.56223 38.0981 4.07322 37.6911 4.43353 37.6562C4.50327 37.6446 4.59626 37.7841 4.63113 37.9586ZM56.1792 37.8772C56.7138 38.0051 57.2601 38.1911 57.388 38.2841C57.7715 38.54 58.0621 39.0632 58.0621 39.4819C58.0621 40.0749 54.4939 55.8545 54.2846 56.1684C54.0406 56.5405 53.4362 56.8312 52.9247 56.8196C52.2041 56.808 50.914 56.4242 50.9372 56.2498C50.9488 56.1568 51.8554 52.0753 52.948 47.1798C54.0406 42.2843 54.9704 38.1446 55.0053 37.9586C55.0401 37.7841 55.0982 37.6446 55.1447 37.6446C55.1796 37.6446 55.6562 37.7492 56.1792 37.8772Z"/>
</mask>
<path d="M26.4475 0.259712C19.7875 1.1202 14.0458 3.94587 9.45468 8.6437C8.0018 10.1205 7.22306 11.0856 6.084 12.8182C4.45678 15.2602 3.16663 18.1905 2.446 21.0743C1.79511 23.6674 1.64401 25.0279 1.65563 28.1676C1.65563 30.6095 1.92296 35.2841 2.10893 36.3073C2.16705 36.6213 2.13218 36.6794 1.78349 36.8539C1.16747 37.1446 0.71417 37.5748 0.435218 38.1562C-0.111064 39.2377 -0.111064 39.1912 1.89972 48.1333C3.96861 57.3545 3.89888 57.1568 5.04955 57.8429C5.9329 58.3778 6.47919 58.4243 7.95531 58.122C8.88515 57.9243 9.18735 57.8894 9.23384 58.0057C9.33845 58.3197 10.1056 59.0406 10.5705 59.2615C11.3027 59.622 12.3372 59.5755 14.4293 59.1104C16.4401 58.6569 16.7074 58.5406 17.3118 57.8778C17.893 57.2382 18.0906 56.7266 18.0906 55.9242C18.0906 55.0637 13.546 34.7259 13.2089 34.0631C12.8718 33.4119 12.1047 32.784 11.3376 32.563C10.7681 32.4002 10.6054 32.4002 9.80337 32.5514L8.92002 32.7142L8.81541 31.6095C8.64107 29.5513 8.7108 25.2605 8.93164 24.0744C10.0707 17.9928 13.6157 12.9229 18.9274 9.73675C22.5422 7.57389 27.1217 6.50409 31.3524 6.82969C39.0701 7.4111 45.7301 11.8647 48.9962 18.6324C50.7048 22.1674 51.2162 25.0977 50.9721 29.9118C50.9023 31.377 50.821 32.6096 50.7977 32.6561C50.7629 32.691 50.3444 32.6444 49.8446 32.5514C49.031 32.4002 48.8799 32.4002 48.2988 32.563C47.5317 32.784 46.7645 33.4119 46.4275 34.0631C46.0904 34.7259 41.5458 55.0637 41.5458 55.9242C41.5458 56.6917 41.7434 57.215 42.2432 57.7964C42.8476 58.4708 43.2893 58.6685 45.1954 59.0987C47.3341 59.5755 48.3337 59.622 49.0659 59.2615C49.5308 59.0406 50.2979 58.3197 50.4025 58.0057C50.449 57.8894 50.7512 57.9243 51.6811 58.122C53.1572 58.4243 53.7035 58.3778 54.5868 57.8429C55.7259 57.1568 55.6794 57.3312 57.6902 48.424C59.6893 39.5516 59.7475 39.1912 59.2128 38.1679C58.9455 37.6562 58.4224 37.1446 57.7715 36.7725C57.5972 36.6678 57.5856 36.5399 57.7018 35.3771C58.1551 30.656 58.1667 25.6326 57.7134 23.1093C55.8654 12.6554 48.1477 4.16681 37.78 1.16672C35.2578 0.445763 33.3748 0.178314 30.3412 0.131802C28.5513 0.108543 27.2728 0.143433 26.4475 0.259712ZM33.2702 1.77139C43.5101 3.10864 51.9833 9.93443 55.2377 19.4464C56.6209 23.5395 56.8766 27.0512 56.307 34.2724C56.1443 36.3539 56.1443 36.3539 55.6562 36.2259C55.3307 36.1445 55.2726 36.0748 55.2726 35.7841C55.2726 34.8422 54.2381 33.6096 53.1688 33.2956C52.8318 33.191 52.4831 33.1096 52.4017 33.1096C52.2739 33.1096 52.2506 32.9584 52.2971 32.4351C52.4598 30.656 52.4947 29.9699 52.4831 27.8187C52.4831 26.3303 52.425 25.0744 52.3087 24.3419C51.7624 20.772 50.3444 17.33 48.2174 14.4462C47.183 13.0508 44.6608 10.5624 43.3009 9.59721C40.1859 7.38784 36.7571 6.01571 33.0378 5.49244C31.457 5.2715 28.3072 5.2715 26.6684 5.50406C17.2072 6.81806 9.47792 13.9694 7.62986 23.0744C7.13007 25.5163 7.07196 27.2489 7.35091 31.8537C7.40903 32.9119 7.3974 33.1096 7.2463 33.1096C7.15332 33.1096 6.81625 33.191 6.49081 33.284C5.43311 33.598 4.3638 34.8422 4.3638 35.7724C4.3638 36.1097 4.20107 36.2492 3.79427 36.2492C3.61992 36.2492 3.57343 36.1097 3.51532 35.5282C3.28286 33.2026 3.16663 30.7374 3.155 28.1676C3.14338 24.9582 3.27123 23.8767 3.92212 21.3069C6.084 12.8648 12.6859 5.81802 21.1126 2.99236C22.9606 2.37606 25.3317 1.85278 27.1449 1.67836C28.3653 1.55045 32.0266 1.60859 33.2702 1.77139ZM11.3027 34.1561C11.5119 34.2724 11.756 34.4933 11.849 34.6445C11.942 34.7957 13.0694 39.6563 14.3712 45.4472L16.7191 55.9824L16.4982 56.4242C16.382 56.6684 16.1495 56.9708 15.9868 57.0871C15.58 57.3778 12.0931 58.1452 11.5933 58.0522C11.3841 58.0173 11.047 57.8429 10.8494 57.6568C10.4426 57.2964 10.6867 58.308 7.4439 43.7378L5.72369 36.0399L5.94453 35.598C6.07238 35.3538 6.29322 35.0631 6.45594 34.9468C6.74651 34.7375 9.94284 33.9468 10.5821 33.9352C10.7797 33.9235 11.0935 34.0282 11.3027 34.1561ZM51.0651 34.3305C52.0646 34.5515 53.0177 34.8306 53.1805 34.9468C53.3432 35.0631 53.564 35.3538 53.6919 35.598L53.9127 36.0399L52.2041 43.6797C48.8567 58.6918 49.1938 57.2964 48.787 57.6568C48.5894 57.8313 48.2523 58.0173 48.0431 58.0522C47.5433 58.1452 44.0564 57.3778 43.6496 57.0871C43.4869 56.9708 43.2544 56.6684 43.1382 56.4242L42.9173 55.9824L45.2652 45.4472C46.567 39.6563 47.6944 34.7957 47.7874 34.6445C48.0082 34.3073 48.6242 33.9235 48.9729 33.9235C49.124 33.9235 50.0655 34.1096 51.0651 34.3305ZM4.63113 37.9586C4.66599 38.1446 5.59584 42.2843 6.6884 47.1798C7.78096 52.0753 8.68756 56.1568 8.69918 56.2498C8.72243 56.4242 7.43227 56.808 6.71165 56.8196C6.20023 56.8312 5.59584 56.5405 5.35175 56.1684C5.14254 55.8545 1.57427 40.0982 1.57427 39.4935C1.57427 39.04 1.93459 38.4353 2.31815 38.2376C2.56223 38.0981 4.07322 37.6911 4.43353 37.6562C4.50327 37.6446 4.59626 37.7841 4.63113 37.9586ZM56.1792 37.8772C56.7138 38.0051 57.2601 38.1911 57.388 38.2841C57.7715 38.54 58.0621 39.0632 58.0621 39.4819C58.0621 40.0749 54.4939 55.8545 54.2846 56.1684C54.0406 56.5405 53.4362 56.8312 52.9247 56.8196C52.2041 56.808 50.914 56.4242 50.9372 56.2498C50.9488 56.1568 51.8554 52.0753 52.948 47.1798C54.0406 42.2843 54.9704 38.1446 55.0053 37.9586C55.0401 37.7841 55.0982 37.6446 55.1447 37.6446C55.1796 37.6446 55.6562 37.7492 56.1792 37.8772Z" fill="#8F8F8F"/>
<path d="M26.4475 0.259712C19.7875 1.1202 14.0458 3.94587 9.45468 8.6437C8.0018 10.1205 7.22306 11.0856 6.084 12.8182C4.45678 15.2602 3.16663 18.1905 2.446 21.0743C1.79511 23.6674 1.64401 25.0279 1.65563 28.1676C1.65563 30.6095 1.92296 35.2841 2.10893 36.3073C2.16705 36.6213 2.13218 36.6794 1.78349 36.8539C1.16747 37.1446 0.71417 37.5748 0.435218 38.1562C-0.111064 39.2377 -0.111064 39.1912 1.89972 48.1333C3.96861 57.3545 3.89888 57.1568 5.04955 57.8429C5.9329 58.3778 6.47919 58.4243 7.95531 58.122C8.88515 57.9243 9.18735 57.8894 9.23384 58.0057C9.33845 58.3197 10.1056 59.0406 10.5705 59.2615C11.3027 59.622 12.3372 59.5755 14.4293 59.1104C16.4401 58.6569 16.7074 58.5406 17.3118 57.8778C17.893 57.2382 18.0906 56.7266 18.0906 55.9242C18.0906 55.0637 13.546 34.7259 13.2089 34.0631C12.8718 33.4119 12.1047 32.784 11.3376 32.563C10.7681 32.4002 10.6054 32.4002 9.80337 32.5514L8.92002 32.7142L8.81541 31.6095C8.64107 29.5513 8.7108 25.2605 8.93164 24.0744C10.0707 17.9928 13.6157 12.9229 18.9274 9.73675C22.5422 7.57389 27.1217 6.50409 31.3524 6.82969C39.0701 7.4111 45.7301 11.8647 48.9962 18.6324C50.7048 22.1674 51.2162 25.0977 50.9721 29.9118C50.9023 31.377 50.821 32.6096 50.7977 32.6561C50.7629 32.691 50.3444 32.6444 49.8446 32.5514C49.031 32.4002 48.8799 32.4002 48.2988 32.563C47.5317 32.784 46.7645 33.4119 46.4275 34.0631C46.0904 34.7259 41.5458 55.0637 41.5458 55.9242C41.5458 56.6917 41.7434 57.215 42.2432 57.7964C42.8476 58.4708 43.2893 58.6685 45.1954 59.0987C47.3341 59.5755 48.3337 59.622 49.0659 59.2615C49.5308 59.0406 50.2979 58.3197 50.4025 58.0057C50.449 57.8894 50.7512 57.9243 51.6811 58.122C53.1572 58.4243 53.7035 58.3778 54.5868 57.8429C55.7259 57.1568 55.6794 57.3312 57.6902 48.424C59.6893 39.5516 59.7475 39.1912 59.2128 38.1679C58.9455 37.6562 58.4224 37.1446 57.7715 36.7725C57.5972 36.6678 57.5856 36.5399 57.7018 35.3771C58.1551 30.656 58.1667 25.6326 57.7134 23.1093C55.8654 12.6554 48.1477 4.16681 37.78 1.16672C35.2578 0.445763 33.3748 0.178314 30.3412 0.131802C28.5513 0.108543 27.2728 0.143433 26.4475 0.259712ZM33.2702 1.77139C43.5101 3.10864 51.9833 9.93443 55.2377 19.4464C56.6209 23.5395 56.8766 27.0512 56.307 34.2724C56.1443 36.3539 56.1443 36.3539 55.6562 36.2259C55.3307 36.1445 55.2726 36.0748 55.2726 35.7841C55.2726 34.8422 54.2381 33.6096 53.1688 33.2956C52.8318 33.191 52.4831 33.1096 52.4017 33.1096C52.2739 33.1096 52.2506 32.9584 52.2971 32.4351C52.4598 30.656 52.4947 29.9699 52.4831 27.8187C52.4831 26.3303 52.425 25.0744 52.3087 24.3419C51.7624 20.772 50.3444 17.33 48.2174 14.4462C47.183 13.0508 44.6608 10.5624 43.3009 9.59721C40.1859 7.38784 36.7571 6.01571 33.0378 5.49244C31.457 5.2715 28.3072 5.2715 26.6684 5.50406C17.2072 6.81806 9.47792 13.9694 7.62986 23.0744C7.13007 25.5163 7.07196 27.2489 7.35091 31.8537C7.40903 32.9119 7.3974 33.1096 7.2463 33.1096C7.15332 33.1096 6.81625 33.191 6.49081 33.284C5.43311 33.598 4.3638 34.8422 4.3638 35.7724C4.3638 36.1097 4.20107 36.2492 3.79427 36.2492C3.61992 36.2492 3.57343 36.1097 3.51532 35.5282C3.28286 33.2026 3.16663 30.7374 3.155 28.1676C3.14338 24.9582 3.27123 23.8767 3.92212 21.3069C6.084 12.8648 12.6859 5.81802 21.1126 2.99236C22.9606 2.37606 25.3317 1.85278 27.1449 1.67836C28.3653 1.55045 32.0266 1.60859 33.2702 1.77139ZM11.3027 34.1561C11.5119 34.2724 11.756 34.4933 11.849 34.6445C11.942 34.7957 13.0694 39.6563 14.3712 45.4472L16.7191 55.9824L16.4982 56.4242C16.382 56.6684 16.1495 56.9708 15.9868 57.0871C15.58 57.3778 12.0931 58.1452 11.5933 58.0522C11.3841 58.0173 11.047 57.8429 10.8494 57.6568C10.4426 57.2964 10.6867 58.308 7.4439 43.7378L5.72369 36.0399L5.94453 35.598C6.07238 35.3538 6.29322 35.0631 6.45594 34.9468C6.74651 34.7375 9.94284 33.9468 10.5821 33.9352C10.7797 33.9235 11.0935 34.0282 11.3027 34.1561ZM51.0651 34.3305C52.0646 34.5515 53.0177 34.8306 53.1805 34.9468C53.3432 35.0631 53.564 35.3538 53.6919 35.598L53.9127 36.0399L52.2041 43.6797C48.8567 58.6918 49.1938 57.2964 48.787 57.6568C48.5894 57.8313 48.2523 58.0173 48.0431 58.0522C47.5433 58.1452 44.0564 57.3778 43.6496 57.0871C43.4869 56.9708 43.2544 56.6684 43.1382 56.4242L42.9173 55.9824L45.2652 45.4472C46.567 39.6563 47.6944 34.7957 47.7874 34.6445C48.0082 34.3073 48.6242 33.9235 48.9729 33.9235C49.124 33.9235 50.0655 34.1096 51.0651 34.3305ZM4.63113 37.9586C4.66599 38.1446 5.59584 42.2843 6.6884 47.1798C7.78096 52.0753 8.68756 56.1568 8.69918 56.2498C8.72243 56.4242 7.43227 56.808 6.71165 56.8196C6.20023 56.8312 5.59584 56.5405 5.35175 56.1684C5.14254 55.8545 1.57427 40.0982 1.57427 39.4935C1.57427 39.04 1.93459 38.4353 2.31815 38.2376C2.56223 38.0981 4.07322 37.6911 4.43353 37.6562C4.50327 37.6446 4.59626 37.7841 4.63113 37.9586ZM56.1792 37.8772C56.7138 38.0051 57.2601 38.1911 57.388 38.2841C57.7715 38.54 58.0621 39.0632 58.0621 39.4819C58.0621 40.0749 54.4939 55.8545 54.2846 56.1684C54.0406 56.5405 53.4362 56.8312 52.9247 56.8196C52.2041 56.808 50.914 56.4242 50.9372 56.2498C50.9488 56.1568 51.8554 52.0753 52.948 47.1798C54.0406 42.2843 54.9704 38.1446 55.0053 37.9586C55.0401 37.7841 55.0982 37.6446 55.1447 37.6446C55.1796 37.6446 55.6562 37.7492 56.1792 37.8772Z" stroke="#8F8F8F" stroke-width="0.25" mask="url(#path-1-outside-1_309_924)"/>
</svg>
