<svg width="64" height="64" viewBox="0 0 64 64" fill="none" xmlns="http://www.w3.org/2000/svg">
<path d="M42.1725 0.162895C40.91 0.562893 39.9225 1.4879 39.485 2.65039C39.2725 3.2254 39.2475 3.6129 39.2475 5.8504C39.26 8.0879 39.235 8.5254 38.9975 9.3629C38.535 11.0754 37.8975 12.0379 36.735 12.8254C35.4475 13.7004 34.0975 14.2879 32.5975 14.6504C31.2725 14.9504 31.135 14.9254 30.96 14.3004C30.56 12.7754 29.235 10.5629 28.135 9.5879C26.4975 8.1254 23.0975 7.3129 21.1225 7.9004C20.0725 8.2129 19.2725 9.0879 19.0475 10.1504C19.01 10.3504 18.7475 13.4129 18.4725 16.9504L17.96 23.3754L13.5225 34.0754C11.085 39.9629 9.01005 44.8754 8.93505 44.9879C8.84755 45.1004 7.32255 46.4379 5.53505 47.9629C3.74755 49.4754 2.01005 51.0379 1.68505 51.4379C0.0975483 53.3379 -0.414952 55.9879 0.347548 58.3379C0.672548 59.3129 1.07255 60.0004 2.28505 61.5879C3.67255 63.4129 4.41005 63.8129 6.61005 63.9254C9.92255 64.1004 13.7475 63.2879 17.0475 61.7129C19.4225 60.5879 16.535 62.6754 49.235 38.5004C58.385 31.7254 58.6725 31.5129 60.2225 29.8879C61.5225 28.5254 62.4225 27.3004 63.0975 25.9629C63.96 24.2504 64.16 23.1379 63.785 22.0754C63.51 21.3129 63.0975 20.8254 61.9725 19.9629C61.435 19.5379 60.71 18.8504 60.3725 18.4379C59.7725 17.7129 59.5725 17.3879 58.06 14.6254C56.21 11.2504 53.5975 7.8379 50.61 4.8629C48.785 3.0504 46.185 0.900394 45.2725 0.450394C44.335 -0.012104 43.0975 -0.137108 42.1725 0.162895ZM43.9725 2.21289C44.96 2.4879 49.2725 6.3379 51.46 8.9004C53.2475 10.9879 56.0225 14.9504 55.9475 15.2879C55.9225 15.3629 55.01 16.1004 53.91 16.9254C52.7475 17.7879 51.7725 18.6254 51.5725 18.9129C51.0975 19.6004 50.71 20.5129 50.61 21.1879L50.535 21.7629L49.285 22.4629C44.0225 25.4004 39.9975 29.5004 37.085 34.8879L36.41 36.1254L35.035 36.9504C29.8475 40.1004 27.385 42.2129 23.16 47.1504C17.1225 54.2254 10.785 58.0879 5.24755 58.0879C4.18505 58.0879 2.78505 57.9004 2.49755 57.7254C2.41005 57.6754 2.27255 57.2879 2.19755 56.8629C1.96005 55.5504 2.42255 53.8504 3.31005 52.7754C3.62255 52.4129 9.92255 46.9629 10.41 46.6379C10.5475 46.5504 12.885 45.5129 15.5975 44.3254C18.46 43.0879 20.885 41.9504 21.3725 41.6254C22.4225 40.9379 23.4475 39.8129 24.01 38.7379C24.2475 38.2754 26.085 33.2004 28.085 27.4754C30.0975 21.7379 31.7475 17.0254 31.76 17.0129C31.7725 16.9879 32.2225 16.8879 32.735 16.7754C34.085 16.5004 35.285 16.0754 36.56 15.4129C38.6475 14.3379 39.8225 13.1379 40.5725 11.3129C41.235 9.7129 41.3975 8.6879 41.3975 5.8754C41.41 3.0004 41.4475 2.90039 42.4725 2.3629C43.085 2.0629 43.3225 2.0379 43.9725 2.21289ZM24.6725 10.1379C26.1225 10.5254 27.0725 11.2879 27.9475 12.7504C28.385 13.4754 28.9975 14.8629 28.91 14.9379C28.885 14.9629 28.3975 14.9254 27.835 14.8504C24.8975 14.4504 23.1225 14.9379 21.4475 16.5879C20.9725 17.0379 20.5975 17.3379 20.5975 17.2504C20.5975 16.4379 21.135 10.5879 21.2225 10.3629C21.285 10.2129 21.4725 10.0254 21.6225 9.9629C21.985 9.8004 23.835 9.9129 24.6725 10.1379ZM28.0475 17.0004L29.435 17.1504L25.91 27.2254C23.9725 32.7629 22.235 37.5754 22.035 37.9129C21.5225 38.7879 20.51 39.7504 19.6225 40.2004C18.9725 40.5254 12.01 43.5879 11.91 43.5879C11.8975 43.5879 12.335 42.4754 12.8975 41.1254L13.9225 38.6754L16.9225 37.8254C20.16 36.9004 20.4725 36.7379 20.4725 35.9504C20.4725 35.4629 19.985 34.9629 19.51 34.9629C19.31 34.9629 18.2725 35.2129 17.1975 35.5254C16.1225 35.8379 15.185 36.0879 15.11 36.0879C15.0475 36.0879 15.235 35.5129 15.5225 34.8129L16.06 33.5254L17.9225 33.0004C21.91 31.8629 21.9725 31.8254 21.9725 31.0254C21.9725 30.4754 21.51 29.9629 21.035 29.9629C20.8475 29.9629 19.9225 30.1879 18.9725 30.4629C18.0225 30.7379 17.21 30.9629 17.185 30.9629C17.1225 30.9629 18.085 28.5629 18.21 28.4379C18.2475 28.3879 19.335 28.0504 20.5975 27.6879C23.1475 26.9754 23.4725 26.7879 23.4725 26.0379C23.4725 25.7129 23.385 25.5379 23.085 25.2879C22.8725 25.1129 22.6225 24.9629 22.51 24.9629C22.36 24.9629 21.4725 25.2004 19.4475 25.7879C19.285 25.8379 19.36 25.5754 19.7725 24.5754C20.0725 23.8754 20.3975 23.2629 20.485 23.2129C20.585 23.1629 21.51 22.8754 22.535 22.5879C23.96 22.2004 24.4725 22.0004 24.6975 21.7629C25.0475 21.3754 25.0475 20.8504 24.71 20.4129C24.385 19.9879 23.8725 19.9879 22.4975 20.3879C21.935 20.5504 21.4725 20.6379 21.4725 20.5754C21.4725 20.2504 22.2475 18.8129 22.6725 18.3379C23.9475 16.9379 24.9725 16.6754 28.0475 17.0004ZM58.9975 20.1379C59.385 20.5754 60.135 21.2504 60.66 21.6504C61.185 22.0379 61.6725 22.5129 61.735 22.7004C62.2475 24.0004 59.885 27.6129 56.935 30.0629C56.3475 30.5504 55.9725 30.7754 55.935 30.6754C55.8975 30.6004 55.1975 28.8879 54.3725 26.8879C52.685 22.8004 52.5475 22.3754 52.6475 21.6629C52.81 20.6004 53.2975 20.0254 55.2225 18.5879L57.0225 17.2504L57.6475 18.3004C57.9975 18.8754 58.61 19.7004 58.9975 20.1379ZM52.5225 27.9879C53.41 30.1379 54.135 31.9629 54.1475 32.0504C54.16 32.1254 50.085 35.2129 45.0975 38.8879C34.71 46.5754 35.71 46.0754 36.285 43.2879C37.835 35.6004 42.51 29.0004 49.285 24.9254C50.0475 24.4629 50.7225 24.0879 50.785 24.0879C50.86 24.0879 51.635 25.8504 52.5225 27.9879ZM35.0475 39.7379C34.31 42.3004 33.7225 45.3379 33.7225 46.6129C33.7225 46.9129 33.6475 47.2504 33.5725 47.3629C33.385 47.5879 19.2225 58.0504 18.285 58.6504C16.685 59.6754 14.4725 60.6254 12.535 61.1254C10.5725 61.6254 9.54755 61.7629 7.53505 61.7629C5.37255 61.7754 4.98505 61.6629 4.34755 60.7879L3.96005 60.2754L5.81005 60.1879C7.98505 60.1004 9.72255 59.7004 11.8475 58.8004C16.2225 56.9629 20.9225 53.1879 25.11 48.1504C26.9975 45.8754 28.885 43.9879 30.8225 42.4254C32.26 41.2754 34.81 39.4754 35.0225 39.4629C35.0725 39.4629 35.085 39.5879 35.0475 39.7379Z" fill="#8F8F8F"/>
</svg>
